<svg width="60" height="70" viewBox="0 0 60 70" fill="none" xmlns="http://www.w3.org/2000/svg">
<path d="M54.7349 6.08725H45.1459V3.48312C45.1459 1.56248 43.4957 0 41.4673 0C39.4404 0 37.7917 1.56248 37.7917 3.48312V6.08725H22.0943V3.48312C22.0943 1.56248 20.4442 0 18.4158 0C16.3888 0 14.7401 1.56248 14.7401 3.48312V6.08725H5.15255C2.31136 6.08725 0 8.27582 0 10.9661V57.4769C0 60.1672 2.31136 62.3557 5.15255 62.3557H14.5149C15.1458 63.2183 15.8648 64.0385 16.6761 64.8068C20.3345 68.2694 25.1405 70 29.9437 70C34.7483 70 39.553 68.268 43.2099 64.8068C44.014 64.0453 44.7358 63.2251 45.3711 62.3557H54.7363C57.5775 62.3557 59.8889 60.1672 59.8889 57.4769V10.9661C59.8874 8.27582 57.5761 6.08725 54.7349 6.08725ZM40.1016 3.48312C40.1016 2.76681 40.7151 2.18447 41.4688 2.18447C42.2253 2.18447 42.8403 2.76681 42.8403 3.48312V10.88C42.8403 11.5935 42.2253 12.1745 41.4688 12.1745C40.7151 12.1745 40.1016 11.5935 40.1016 10.88V3.48312ZM17.0486 3.48312C17.0486 2.76681 17.6622 2.18447 18.4158 2.18447C19.1723 2.18447 19.7873 2.76681 19.7873 3.48312V10.88C19.7873 11.5935 19.1723 12.1745 18.4158 12.1745C17.6622 12.1745 17.0486 11.5935 17.0486 10.88V3.48312ZM5.15255 8.27309H14.7416V10.88C14.7416 12.7992 16.3903 14.3603 18.4172 14.3603C20.4456 14.3603 22.0958 12.7992 22.0958 10.88V8.27309H37.7945V10.88C37.7945 12.7992 39.4432 14.3603 41.4702 14.3603C43.4986 14.3603 45.1487 12.7992 45.1487 10.88V8.27309H54.7378C56.3056 8.27309 57.5819 9.48152 57.5819 10.9661V18.2631H2.30847V10.9661C2.30847 9.48015 3.58326 8.27309 5.15255 8.27309ZM41.577 63.2607C38.3691 66.2982 34.1564 67.8155 29.9437 67.8155C25.731 67.8155 21.5154 66.2968 18.3075 63.2607C17.4861 62.4815 16.77 61.6408 16.1579 60.7522C16.129 60.7003 16.0958 60.6524 16.0582 60.606C12.0101 54.5802 12.7594 46.478 18.3061 41.226C21.4014 38.2952 25.5332 36.6807 29.9423 36.6807C34.3513 36.6807 38.4817 38.2952 41.5756 41.226C44.6709 44.1555 46.3759 48.0665 46.3759 52.2413C46.3759 55.2637 45.4822 58.1495 43.8133 60.6237C43.7917 60.6525 43.77 60.6825 43.7512 60.714C43.1305 61.6244 42.4043 62.4774 41.577 63.2607ZM54.7349 60.1699H46.7339C48.0087 57.7421 48.6829 55.0436 48.6829 52.2427C48.6829 47.4841 46.7382 43.0236 43.207 39.6827C39.6771 36.339 34.9663 34.4976 29.9408 34.4976C24.9153 34.4976 20.2031 36.339 16.6718 39.6827C10.8292 45.2149 9.654 53.5208 13.1477 60.1713H5.14967C3.58181 60.1713 2.30558 58.9628 2.30558 57.4783V20.4476H57.5775V57.4769C57.579 58.9615 56.3042 60.1699 54.7349 60.1699ZM42.0823 52.2413C42.0823 52.8455 41.5655 53.3335 40.9288 53.3335H29.9437C29.3056 53.3335 28.7902 52.8441 28.7902 52.2413V41.8412C28.7902 41.2369 29.3071 40.7489 29.9437 40.7489C30.5804 40.7489 31.0972 41.2383 31.0972 41.8412V51.1491H40.9274C41.5655 51.1491 42.0823 51.6385 42.0823 52.2413Z" fill="#002B45"/>
</svg>
